<svg xmlns="http://www.w3.org/2000/svg" xml:space="preserve" width="2000" height="92" data-id="lg_QqQ8SSFfAR0YohSGVB" data-version="1" viewBox="0 0 2000 92"><g data-padding="20"><g transform="translate(10 1.685)scale(.96337)"><path fill="#fff" d="M782.022 73.788c.342-1.368 1.817-2.116 3.312-1.656l10.959 3.372c1.482.456 2.412 1.944 2.07 3.312s-1.817 2.116-3.312 1.656L784.09 77.1c-1.481-.463-2.404-1.94-2.07-3.312m-1.555 6.228c.342-1.368 1.817-2.116 3.312-1.656l10.959 3.372c1.482.456 2.412 1.944 2.07 3.312s-1.817 2.116-3.312 1.656l-10.96-3.372c-1.481-.463-2.404-1.94-2.07-3.312m2.539 7.488c.342-1.368 1.817-2.116 3.312-1.656l2.782.856c1.482.456 2.412 1.944 2.07 3.312s-1.817 2.116-3.312 1.656l-2.782-.856c-1.492-.472-2.412-1.944-2.07-3.312m-14.526-54.456c.354-1.416-.606-2.952-2.14-3.424l-8.034-2.472c-1.534-.472-3.07.296-3.424 1.712s.606 2.952 2.14 3.424l8.034 2.472c1.534.472 3.07-.296 3.424-1.712m7.532-16.744-6.028-5.848a3.3 3.3 0 0 0-1.304-.776c-.988-.304-2.047-.1-2.74.54-.526.484-.788 1.14-.761 1.872.03.72.344 1.424.91 1.96l6.028 5.848c.372.36.823.628 1.304.776.988.304 2.034.096 2.739-.54.527-.484.789-1.14.762-1.872-.03-.72-.36-1.416-.91-1.96m13.469-13.948c-.466-1.466-2.065-2.41-3.575-2.108-1.503.3-2.351 1.732-1.893 3.204l2.412 7.656c.466 1.466 2.065 2.41 3.575 2.108 1.503-.3 2.35-1.732 1.893-3.204Zm19.973-.768c-1.534-.472-3.07.296-3.424 1.712l-1.854 7.416c-.354 1.416.606 2.952 2.14 3.424s3.07-.296 3.424-1.712l1.854-7.416c.354-1.416-.606-2.952-2.14-3.424m20.807 12.308a3.3 3.3 0 0 0-1.304-.776c-.988-.304-2.034-.096-2.74.54l-5.621 5.184c-1.075.994-1.014 2.704.135 3.828.372.36.823.628 1.304.776.988.304 2.034.096 2.739-.54l5.622-5.184c.527-.484.789-1.14.762-1.872a2.85 2.85 0 0 0-.897-1.956m1.218 24.643a3.04 3.04 0 0 0 1.478.08l7.882-1.568c1.503-.3 2.35-1.732 1.893-3.204-.466-1.466-2.065-2.41-3.575-2.108l-7.882 1.568c-1.503.3-2.351 1.732-1.893 3.204.309.948 1.109 1.724 2.097 2.028m9.949 14.19-8.034-2.473c-1.534-.472-3.07.296-3.424 1.712s.606 2.952 2.14 3.424l8.034 2.472c1.534.472 3.07-.296 3.424-1.712s-.606-2.952-2.14-3.424m-9.068 18.236-6.028-5.848a3.3 3.3 0 0 0-1.304-.776c-.988-.304-2.034-.096-2.74.54-.526.484-.788 1.14-.761 1.872.03.72.347 1.412.91 1.96l6.028 5.848c.372.36.823.628 1.304.776.988.304 2.034.096 2.739-.54.527-.484.789-1.14.762-1.872s-.347-1.412-.91-1.96m-65.403-24.492a3.04 3.04 0 0 0-1.478-.08l-7.882 1.568c-1.503.3-2.351 1.732-1.893 3.204.466 1.466 2.065 2.41 3.575 2.108l7.882-1.568c1.503-.3 2.35-1.732 1.893-3.204a2.943 2.639 30.321 0 0-2.097-2.028m56.02-6.128c-1.775-8.636-8.748-15.408-19.135-18.604s-19.508-1.376-25.04 5.012c-6.178 7.132-6.722 18.492-1.34 28.264 3.11 5.648 3.854 7.828 3.973 10.488.07 1.844.153 3.588 1.978 4.24l.09.028L797.412 74c1.872.576 3.495-.708 4.352-2.176.444-.768 3.327-3.06 9.25-6.484 9.126-5.308 13.934-15.356 11.962-24.996m-25.487 14.644-5.31 11.328-.137-22.076 3.51 2.928 5.465-11.5-.041 22.228Z"/><rect width="532.266" height="103.96" x="594.872" y="-63.563" fill="none" rx="0" ry="0" transform="matrix(.86 0 0 .86 331.14 56.26)"/><path fill="#fff" d="M877.933 26.054q1.583 0 3.01.318 1.42.318 2.374.791v15.11q-3.242-1.34-6.966-1.34-4.98 0-7.671 2.604-2.692 2.615-2.692 7.758v6.88h7.12v12.977h-28.8V58.175h3.482V40.14h-3.483V27.163h21.68v5.77q2.22-3.319 5.066-5.1 2.847-1.78 6.88-1.78m31.493 46.208q-11.24 0-17.57-5.9-6.33-5.89-6.33-17.208 0-11.309 6.33-17.208 6.33-5.89 17.57-5.89 11.395 0 17.639 5.976 6.252 5.968 6.252 17.122 0 11.318-6.33 17.21-6.33 5.9-17.56 5.9m0-14.088q2.296 0 3.44-1.222 1.143-1.23 1.143-3.844V45.2q0-2.607-1.144-3.836-1.143-1.222-3.44-1.222t-3.44 1.222q-1.152 1.23-1.152 3.835v7.912q0 2.615 1.152 3.844 1.144 1.222 3.44 1.222"/><path fill="#fff" d="M955.4 22.811h-16.14V9.593h16.14Zm-16.69 67.012q-3.242 0-6.691-.55-3.44-.56-5.814-1.188v-12.9q3.724.56 6.648.56 6.089 0 6.089-5.702V40.14h-5.298V27.163h23.496V68.46q0 10.845-4.584 16.1-4.593 5.263-13.846 5.263m45.486-17.562q-11.24 0-17.57-5.9-6.33-5.89-6.33-17.208 0-11.309 6.33-17.208 6.33-5.89 17.57-5.89 11.154 0 16.099 5.812 4.945 5.814 4.945 14.44v5.701h-25.637v.473q0 2.924 1.746 4.31 1.737 1.384 5.77 1.384 4.825 0 9.177-.714 4.352-.705 7.602-1.815v12.66q-2.77 1.504-8.11 2.726-5.34 1.23-11.592 1.23m-4.593-28.957h9.177v-.954q0-2.692-1.144-3.879t-3.44-1.187-3.44 1.23q-1.153 1.23-1.153 3.836Zm51.67 28.956q-11.318 0-17.648-5.9-6.33-5.89-6.33-17.208 0-11.309 6.33-17.208 6.33-5.89 17.57-5.89 5.452 0 10.44 1.504t7.757 3.397v15.67h-13.613v-1.429q0-2.606-1.11-3.835-1.1-1.222-3.474-1.222-4.593 0-4.593 5.057v6.811q0 6.167 7.044 6.167 6.562 0 15.265-1.42v12.42q-2.683 1.186-7.551 2.132-4.868.954-10.088.954m40.359 0q-8.385 0-12.624-4.076-4.232-4.076-4.232-13.726V40.14h-3.483V27.163q3.01 0 4.515-1.548 1.505-1.54 1.505-4.23v-3.56h16.77v9.338h10.682V40.14h-10.682v12.97q0 2.614 1.144 3.843 1.153 1.222 3.449 1.222 3 0 6.562-.714v12.427q-2.21.868-5.97 1.617-3.757.756-7.636.756m79.585-62.668v12.978h-3.956v35.604h3.956v12.977h-29.91V58.175h3.8V45.12h-11.076v13.055h3.8v12.977h-29.91V58.175h3.956V22.571h-3.956V9.593h29.91v12.978h-3.8v12.031h11.077v-12.03h-3.801V9.592Zm22.945 13.218h-16.142V9.593h16.142Zm5.22 48.341h-25.155V58.175h3.475V40.14h-3.475V27.163h21.672v31.012h3.483Zm38.45 0h-23.572l-9.967-31.012h-3.328V27.163h24.45V40.14h-3.32l4.188 15.661h.79l4.198-15.66h-3.328V27.162h22.945V40.14h-3.32Zm38.856 1.11q-11.24 0-17.57-5.9-6.33-5.89-6.33-17.209 0-11.309 6.33-17.208 6.33-5.89 17.57-5.89 11.154 0 16.099 5.812 4.945 5.814 4.945 14.44v5.701h-25.637v.473q0 2.924 1.738 4.31 1.745 1.384 5.779 1.384 4.824 0 9.176-.714 4.352-.705 7.594-1.815v12.66q-2.77 1.504-8.11 2.726-5.34 1.23-11.584 1.23m-4.593-28.957h9.177v-.954q0-2.692-1.144-3.879-1.153-1.187-3.44-1.187-2.296 0-3.45 1.23-1.143 1.23-1.143 3.836Z"/></g><path fill="transparent" stroke="transparent" d="M727 0h546v92H727z"/></g></svg>