<svg xmlns="http://www.w3.org/2000/svg" xml:space="preserve" width="2000" height="1500" data-id="lg_QqQ8SSFfAR0YohSGVB" data-version="1" viewBox="0 0 2000 1500"><path fill="#fff" stroke="transparent" d="M0 0h2000v1500H0z"/><g data-padding="20"><g transform="translate(-1647.059 -1250.01)scale(2.57847)"><path fill="#d4af37" d="M792.885 813.119c0-1.71 1.564-3.105 3.519-3.105h14.33c1.939 0 3.52 1.395 3.52 3.105s-1.564 3.105-3.52 3.105h-14.33c-1.94-.008-3.51-1.393-3.52-3.105m0 7.784c0-1.71 1.565-3.105 3.52-3.105h14.33c1.939 0 3.52 1.395 3.52 3.105s-1.564 3.105-3.52 3.105h-14.33c-1.94-.008-3.51-1.393-3.52-3.105m5.356 7.786c0-1.71 1.564-3.105 3.519-3.105h3.638c1.938 0 3.519 1.395 3.519 3.105s-1.564 3.105-3.52 3.105h-3.637c-1.955-.015-3.52-1.395-3.52-3.105m-34.17-58.021c0-1.77-1.631-3.21-3.637-3.21h-10.506c-2.006 0-3.638 1.44-3.638 3.21s1.632 3.21 3.638 3.21h10.506c2.006 0 3.638-1.44 3.638-3.21m4.063-22.124-9.095-4.635a4 4 0 0 0-1.82-.435c-1.291 0-2.515.615-3.161 1.605a2.84 2.84 0 0 0-.357 2.445c.255.825.85 1.53 1.7 1.95l9.095 4.635c.56.285 1.19.435 1.819.435 1.292 0 2.499-.615 3.162-1.605.493-.75.612-1.605.357-2.445-.255-.825-.867-1.515-1.7-1.95m12.12-21c-1.01-1.535-3.24-2.06-4.98-1.17-1.734.885-2.33 2.85-1.326 4.395l5.253 8.025c1.01 1.535 3.24 2.059 4.98 1.17 1.735-.885 2.33-2.85 1.327-4.395Zm24.022-8.025c-2.006 0-3.638 1.44-3.638 3.21v9.27c0 1.77 1.632 3.21 3.638 3.21s3.638-1.44 3.638-3.21v-9.27c0-1.77-1.632-3.21-3.638-3.21m29.002 6.855a4 4 0 0 0-1.82-.435c-1.291 0-2.498.615-3.161 1.605l-5.253 8.025c-1.003 1.538-.41 3.5 1.326 4.395.56.285 1.19.435 1.819.435 1.292 0 2.499-.615 3.162-1.605l5.253-8.025c.493-.75.612-1.605.357-2.445s-.85-1.53-1.683-1.95m8.959 28.168c.629 0 1.258-.15 1.819-.435l9.095-4.635c1.734-.885 2.329-2.85 1.326-4.395-1.01-1.535-3.24-2.06-4.981-1.17l-9.095 4.635c-1.734.885-2.33 2.85-1.326 4.395.663.99 1.87 1.605 3.162 1.605m16.388 12.916h-10.506c-2.006 0-3.638 1.44-3.638 3.21s1.632 3.21 3.638 3.21h10.506c2.006 0 3.638-1.44 3.638-3.21s-1.632-3.21-3.638-3.21m-5.474 24.406-9.095-4.635a4 4 0 0 0-1.82-.435c-1.291 0-2.498.615-3.161 1.605a2.84 2.84 0 0 0-.357 2.445c.255.825.85 1.515 1.7 1.95l9.095 4.635c.56.285 1.19.435 1.819.435 1.292 0 2.499-.615 3.162-1.605.493-.75.612-1.605.357-2.445s-.85-1.515-1.7-1.95m-86.853-5.07c-.63 0-1.258.15-1.82.435l-9.094 4.635c-1.734.885-2.33 2.85-1.326 4.395 1.01 1.535 3.24 2.059 4.98 1.17l9.096-4.635c1.734-.885 2.329-2.85 1.326-4.395a3.655 3.225 0 0 0-3.162-1.605m66.164-27.12c-4.777-9.39-15.3-14.76-28.883-14.76s-24.106 5.37-28.883 14.76c-5.338 10.485-2.55 23.865 6.953 33.285 5.49 5.445 7.055 7.71 8.007 10.755.646 2.115 1.275 4.11 3.689 4.215h.119l18.173-.06c2.448 0 4.029-2.07 4.624-4.08.306-1.05 3.11-4.74 9.265-10.83 9.469-9.42 12.257-22.8 6.936-33.285m-26.503 26.1-3.01 15.045-6.867-25.575 5.15 2.145 3.146-15.3 6.698 25.815Z"/><rect width="418.037" height="103.96" x="502.477" y="634.43" fill="none" rx="0" ry="0" transform="translate(340.37 56.15)scale(1.05)"/><path fill="#d4af37" d="M881.178 807.227h-8.022v-52.731h7.739v8.02h.567q1.459-3.915 5.26-6.341 3.79-2.436 8.505-2.436.903 0 2.226.02 1.313.033 2.027.075v8.21q-.431-.093-1.89-.283-1.46-.188-3.108-.188-3.822 0-6.846 1.606-3.014 1.596-4.736 4.379t-1.722 6.373Zm44.719 1.123q-7.12 0-12.495-3.392-5.376-3.402-8.368-9.534-3.003-6.132-3.003-14.238 0-8.263 3.003-14.416 2.992-6.153 8.368-9.545 5.376-3.402 12.495-3.402 7.172 0 12.548 3.402 5.376 3.392 8.4 9.545 3.013 6.153 3.013 14.416 0 8.106-3.013 14.238-3.024 6.132-8.4 9.534-5.376 3.392-12.548 3.392m0-7.266q5.47 0 8.967-2.783 3.486-2.782 5.187-7.33 1.7-4.556 1.7-9.785 0-5.334-1.7-9.912-1.701-4.567-5.187-7.381-3.497-2.804-8.967-2.804-5.376 0-8.862 2.804-3.496 2.814-5.187 7.38-1.701 4.579-1.701 9.913 0 5.229 1.7 9.786 1.69 4.547 5.188 7.329 3.486 2.783 8.862 2.783M957.68 811.1v-56.606h8.022V811.1q.042 4.85-1.628 8.42-1.68 3.56-5.03 5.493t-8.441 1.93h-1.606v-7.548h1.512q3.727 0 5.428-2.142 1.7-2.152 1.743-6.153m3.959-65.384q-2.352 0-4.053-1.596-1.701-1.606-1.701-3.874 0-2.258 1.7-3.864 1.702-1.607 4.054-1.607 2.362 0 4.063 1.607 1.69 1.606 1.69 3.864 0 2.268-1.69 3.874-1.701 1.596-4.063 1.596m36.508 62.633q-7.592 0-13.135-3.392-5.545-3.402-8.516-9.513-2.972-6.1-2.972-14.164 0-8.117 2.93-14.301 2.919-6.174 8.232-9.66 5.303-3.497 12.432-3.497 4.095 0 8.158 1.365 4.053 1.376 7.382 4.442 3.318 3.066 5.303 8.106 1.984 5.05 1.984 12.41v3.487H979.28v-6.983h36.277l-3.727 2.646q0-5.281-1.65-9.387-1.647-4.105-4.934-6.458-3.276-2.362-8.127-2.362-4.862 0-8.327 2.384-3.475 2.383-5.313 6.205-1.837 3.81-1.837 8.2v4.62q0 5.996 2.079 10.143 2.068 4.159 5.796 6.3t8.63 2.143q3.16 0 5.755-.914 2.594-.924 4.483-2.782 1.89-1.87 2.877-4.6l7.833 2.258q-1.228 3.969-4.126 6.96t-7.192 4.674q-4.295 1.67-9.63 1.67m50.758 0q-7.36 0-12.715-3.518-5.356-3.507-8.254-9.64t-2.898-14.006q0-8.074 2.972-14.227t8.326-9.64q5.355-3.496 12.474-3.496 5.565 0 10.028 2.058 4.452 2.048 7.308 5.775t3.517 8.673h-8.116q-.62-2.404-2.216-4.525-1.606-2.121-4.22-3.423-2.626-1.292-6.206-1.292-4.715 0-8.253 2.457-3.54 2.447-5.523 6.909-1.974 4.452-1.974 10.448 0 6.079 1.932 10.636 1.932 4.547 5.49 7.046 3.56 2.499 8.328 2.499t8.158-2.478q3.402-2.468 4.484-6.762h8.116q-.661 4.672-3.38 8.389-2.71 3.728-7.12 5.922t-10.258 2.195m23.96-53.854h27.259v6.887h-27.258Zm7.929 39.805v-52.353h8.01v50.19q0 4.106 1.702 6.017 1.7 1.9 5.376 1.9.809 0 1.68-.084.87-.095 1.91-.284l1.69 7.256q-1.133.43-2.76.682-1.617.263-3.276.263-6.363 0-10.353-3.77-3.98-3.78-3.98-9.817m36.604 12.915h-8.495v-70.277h8.495v31.322h37.443v-31.322h8.494v70.277h-8.494V775.81h-37.443Zm65.373.01h-8.022v-52.73h8.022Zm-3.97-61.51q-2.352 0-4.053-1.594-1.7-1.607-1.7-3.875 0-2.257 1.7-3.864t4.053-1.606q2.363 0 4.064 1.606 1.69 1.607 1.69 3.864 0 2.268-1.69 3.875-1.701 1.596-4.064 1.596m48.584 8.778h8.778l-19.435 52.73h-8.295l-19.436-52.73h8.768l14.532 42.073h.567Zm37.086 53.854q-7.591 0-13.135-3.392-5.544-3.402-8.515-9.513-2.972-6.1-2.972-14.164 0-8.117 2.93-14.301 2.919-6.174 8.232-9.66 5.302-3.497 12.42-3.497 4.107 0 8.17 1.365 4.053 1.376 7.382 4.442 3.318 3.066 5.302 8.106 1.985 5.05 1.985 12.41v3.487h-40.667v-6.983h36.277l-3.727 2.646q0-5.281-1.648-9.387-1.65-4.105-4.935-6.458-3.276-2.362-8.138-2.362-4.851 0-8.316 2.384-3.476 2.383-5.313 6.205-1.838 3.81-1.838 8.2v4.62q0 5.996 2.08 10.143 2.068 4.159 5.796 6.3t8.63 2.143q3.16 0 5.755-.914 2.593-.924 4.483-2.782 1.89-1.87 2.877-4.6l7.833 2.258q-1.228 3.969-4.126 6.96-2.91 2.994-7.193 4.674-4.294 1.67-9.628 1.67"/></g><path fill="transparent" stroke="transparent" stroke-width="2.674" d="M250 600.267h1500v299.466H250z"/></g></svg>